<?xml version="1.0" encoding="UTF-8" standalone="no"?> <!-- Created with Vectornator for iOS (http://vectornator.io/) --><!DOCTYPE svg PUBLIC "-//W3C//DTD SVG 1.1//EN" "http://www.w3.org/Graphics/SVG/1.1/DTD/svg11.dtd">
<svg height="100%" style="fill-rule:evenodd;clip-rule:evenodd;stroke-linecap:round;stroke-linejoin:round;" xmlns:xlink="http://www.w3.org/1999/xlink" xmlns="http://www.w3.org/2000/svg" xml:space="preserve" width="100%" xmlns:vectornator="http://vectornator.io" version="1.1" viewBox="0 0 1900 235">
<metadata>
<vectornator:setting key="DisplayWhiteBackground" value="0"/>
<vectornator:setting key="RulersVisible" value="1"/>
<vectornator:setting key="GridSpacing" value="36"/>
<vectornator:setting key="Units" value="Pixels"/>
<vectornator:setting key="DynamicGuides" value="0"/>
<vectornator:setting key="SnapToPoints" value="1"/>
<vectornator:setting key="CMYKEnabledKey" value="0"/>
<vectornator:setting key="SnapToGrid" value="0"/>
<vectornator:setting key="SnapToGuides" value="0"/>
<vectornator:setting key="SnapToEdges" value="1"/>
</metadata>
<defs/>
<g id="Layer 1" vectornator:layerName="Layer 1" visibility="hidden">
<path d="M409.784+261.439L356.835+727.626" opacity="1" fill="#000000"/>
<path stroke="#000000" stroke-width="1" d="M467.879+200.432C457.052+269.306+445.878+335.099+425.572+402.133C418.723+424.742+410.026+446.537+402.613+468.965C400.997+473.854+398.426+488.713+394.498+494.233C394.409+494.358+393.915+494.137+394.06+494.087L393.278+493.826C391.994+493.55+403.489+460.88+405.455+455.666C413.477+434.389+420.482+412.942+427.389+391.279C447.467+328.31+455.406+265.044+466.797+200.432" fill="#000000" stroke-linecap="butt" opacity="1" stroke-linejoin="round"/>
<path stroke="#000000" stroke-width="1" d="M553.059+252.23C553.308+306.693+529.302+365.84+512.864+417.046C506.849+435.784+498.871+453.218+491.001+471.224C489.006+475.788+487.209+480.437+485.25+485.017C484.78+486.117+482.956+488.29+484.144+488.432C487.119+488.788+493.242+484.616+495.891+484.077C514.309+480.33+534.942+476.784+553.535+474.846C564.941+473.657+584.659+482.325+588.028+467.373L588.375+467.591C585.375+484.398+566.431+474.937+553.803+476.233C538.354+477.819+523.314+482.749+507.772+484.326C504.765+484.631+486.069+490.563+482.762+487.971C480.165+485.936+484.993+481.757+486.262+478.711C492.845+462.9+501.039+447.653+506.994+431.596C525.844+380.763+551.729+306.615+551.977+252.23" fill="#000000" stroke-linecap="butt" opacity="1" stroke-linejoin="round"/>
<path stroke="#000000" stroke-width="1" d="M639.449+279.906C631.435+323.392+619.963+365.798+606.247+407.852C600.32+426.025+584.309+456.402+589.048+476.761C591.732+488.291+619.582+484.961+626.187+483.985C639.248+482.056+652.084+478.682+665.189+477.079C681.792+475.047+700.021+482.702+706.696+465.15L706.83+465.21C701.164+484.716+682.883+476.513+665.458+478.605C647.803+480.725+630.094+486.688+612.225+486.694C605.77+486.696+589.275+485.666+587.355+476.62C582.95+455.874+598.648+425.982+604.688+407.4C618.324+365.442+629.986+323.131+638.248+279.806" fill="#000000" stroke-linecap="butt" opacity="1" stroke-linejoin="round"/>
<path stroke="#000000" stroke-width="1" d="M714.1+315.69C704.735+353.45+672.995+490.078+759.712+465.781C815.137+450.251+827.258+372.589+827.933+325.773C828.066+316.593+827.582+307.398+826.729+298.256C826.217+292.776+815.892+256.644+822.99+253.375L823.053+253.388C818.244+256.047+828.135+294.103+828.523+298.29C829.377+307.503+829.836+316.776+829.621+326.026C828.519+373.346+815.419+451.294+759.712+466.881C670.84+491.749+703.472+354.146+713.238+315.389" fill="#000000" stroke-linecap="butt" opacity="1" stroke-linejoin="round"/>
<path stroke="#000000" stroke-width="1" d="M852.116+267.603C809.667+339.882+933.34+340.596+915.497+414.461C907.011+449.588+870.624+469.875+839.482+480.716C818.651+487.967+793.448+487.627+788.319+464.126L788.659+463.932C793.826+486.753+818.748+486.443+838.791+479.572C869.663+468.989+906.082+449.395+914.719+414.604C933.092+340.598+808.473+341.008+851.481+266.786" fill="#000000" stroke-linecap="butt" opacity="1" stroke-linejoin="round"/>
<path stroke="#000000" stroke-width="1" d="M956.985+309.853C951.135+349.616+943.177+389.048+935.308+428.462C933.581+437.113+924.941+483.165+928.743+465.135L929.099+465.224C921.586+481.517+932.197+437.447+934.044+428.229C941.938+388.829+950.036+349.437+956.108+309.716" fill="#000000" stroke-linecap="butt" opacity="1" stroke-linejoin="round"/>
<path stroke="#000000" stroke-width="1" d="M939.472+283.635C922.562+289.37+905.83+295.661+888.742+300.84C876.189+304.644+851.817+301.272+851.799+314.388L851.799+314.388C851.78+301.278+875.995+304.171+888.524+300.311C905.552+295.066+922.235+288.76+939.09+282.984" fill="#000000" stroke-linecap="butt" opacity="1" stroke-linejoin="round"/>
<path stroke="#000000" stroke-width="1" d="M988.428+407.746C984.911+385.484+980.437+363.353+977.875+340.962C973.709+304.552+975.374+249.555+1017.28+234.622C1021.67+233.059+1026.86+233.075+1031.25+234.63C1065.11+246.628+1084.94+307.898+1069.69+338.569C1065.29+347.406+1058.09+354.627+1051.25+361.739C1039.33+374.12+1018.67+385.493+1004.02+391.945C993.052+396.774+970.67+399.126+975.171+402.285C998.457+418.623+1029.66+425.138+1055.72+435.951C1064.21+439.476+1074.59+449.145+1082.13+443.887C1096.28+434.022+1095.04+398.19+1096.57+386.835C1100.76+355.743+1104.53+323.76+1117.22+294.694C1120.12+288.062+1140.69+246.509+1155.49+255.396C1167.24+262.457+1167.12+277.728+1168.75+288.911C1173.53+321.691+1177.62+354.912+1179.13+388.029C1179.49+396.081+1179.16+404.15+1179.16+412.21C1179.16+419.519+1173.8+434.325+1181.11+434.051L1180.91+434.15C1176.31+433.999+1178.51+393.238+1178.28+388.086C1176.85+355.019+1172.52+321.969+1167.94+289.218C1166.51+278.963+1166.63+262.967+1155.88+255.971C1141.45+246.582+1120.83+288.818+1118.18+294.946C1100.44+335.91+1100.33+380.743+1092.78+423.942C1090.35+437.837+1091.18+439.093+1081.9+445.034C1078.49+447.216+1055.64+436.973+1055.36+436.854C1029.11+425.732+997.334+419.496+974.757+401.456C970.58+398.118+992.451+395.897+1003.47+391.077C1027.6+380.513+1056.53+363.4+1069.02+338.553C1084.15+308.443+1064.82+247.3+1031.49+235.298C1019.2+230.874+1008.24+239.872+999.598+246.713C974.728+266.399+975.939+313.384+978.959+340.765C981.427+363.133+985.737+385.259+989.126+407.506" fill="#000000" stroke-linecap="butt" opacity="1" stroke-linejoin="round"/>
<path stroke="#000000" stroke-width="1" d="M1136.12+392.217C1111.46+394.603+1082.01+400.794+1057.84+392.693L1057.84+392.631C1082.89+398.54+1110.96+393.239+1136.12+390.804" fill="#000000" stroke-linecap="butt" opacity="1" stroke-linejoin="round"/>
<path stroke="#000000" stroke-width="1" d="M1236.6+372.007C1229.48+396.95+1218.66+424.422+1218.04+450.255L1217.65+450.177C1217.04+424.671+1228.87+396.502+1235.92+371.878" fill="#000000" stroke-linecap="butt" opacity="1" stroke-linejoin="round"/>
<path stroke="#000000" stroke-width="1" d="M1226.1+341.346C1202.57+346.71+1182.32+350.735+1157.99+350.089L1157.98+350.055C1182.12+349.408+1202.29+345.85+1225.7+340.38" fill="#000000" stroke-linecap="butt" opacity="1" stroke-linejoin="round"/>
<path stroke="#000000" stroke-width="1" d="M1287.26+362.863C1279.11+387.401+1258.76+430.556+1264.05+459.434L1263.72+459.415C1257.49+430.654+1278.41+386.929+1286.56+362.605" fill="#000000" stroke-linecap="butt" opacity="1" stroke-linejoin="round"/>
<path stroke="#000000" stroke-width="1" d="M1338.92+392.835C1331.45+411.199+1325.93+419.113+1328.68+441.078C1331.18+461.15+1370.18+447.603+1377.76+440.735C1416.46+405.664+1421.98+354.327+1395.84+309.927C1388.84+298.028+1378.59+293.13+1364.97+290.552C1332.08+284.326+1306.3+328.465+1308.24+355.994C1308.98+366.586+1308.81+381.401+1322.02+385.486C1351.29+394.539+1386.25+377.329+1407.56+358.917C1414.12+353.251+1421.45+346.178+1426.15+338.531C1427.95+335.611+1429.61+332.57+1430.79+329.353C1431.19+328.272+1431.46+324.964+1430.79+325.899C1418.32+343.279+1415.51+373.68+1412.78+393.899C1411.54+403.086+1410.87+412.352+1409.36+421.499C1407.57+432.351+1406.32+443.455+1402.54+453.781C1402.25+454.562+1401.38+452.396+1401.39+451.563C1401.42+443.422+1402.12+435.296+1402.65+427.172C1403.32+416.799+1404.43+406.455+1404.98+396.075C1405.86+379.58+1402.16+346.657+1408.47+329.32C1410.51+323.729+1416.75+338.402+1418.5+344.09C1421.05+352.403+1422.08+361.115+1424.32+369.515C1428.55+385.324+1449.21+447.944+1470.2+448.814C1483.84+449.38+1486.89+430.222+1487.99+422.344C1491.13+399.939+1480.93+349.268+1490.65+330.504L1490.65+330.504C1481.57+349.338+1492.29+400.046+1488.7+422.836C1487.34+431.483+1483.78+450.212+1469.66+449.315C1448.41+447.966+1427.77+386.019+1423.45+369.765C1421.23+361.437+1419.97+352.874+1417.76+344.543C1416.28+338.959+1411.34+323.956+1409.37+329.385C1399.15+357.517+1406.7+397.666+1403.68+427.217C1402.86+435.237+1401.01+443.136+1400.34+451.171C1400.27+452.051+1401.18+454.383+1401.49+453.557C1408.44+435.438+1409.37+412.549+1411.97+393.727C1414.71+373.843+1417.7+342.604+1430.79+325.899C1431.5+324.993+1431.18+328.27+1430.79+329.353C1429.63+332.585+1427.96+335.626+1426.22+338.591C1421.32+346.966+1415.43+353.049+1407.98+359.644C1386.38+378.781+1350.62+395.944+1320.86+386.025C1304.53+380.585+1304.57+354.923+1308.23+341.725C1314.77+318.169+1335.01+283.871+1365.39+289.88C1391.83+295.108+1401.17+313.226+1409.37+337.41C1422.49+376.096+1406.83+415.26+1377.93+441.279C1369.95+448.457+1330.59+461.523+1328.01+440.936C1325.23+418.638+1330.77+411.006+1338.49+392.488" fill="#000000" stroke-linecap="butt" opacity="1" stroke-linejoin="round"/>
<path stroke="#000000" stroke-width="1" d="M1559.68+309.564C1551.56+310.264+1543.96+314.317+1536.86+318.321C1531.78+321.185+1526.71+324.1+1522+327.537C1479.74+358.378+1549.73+371.78+1555.44+399.25C1562.88+434.981+1524.43+435.932+1503.27+425.018L1503.35+424.767C1523.68+434.607+1561.43+434.612+1554.77+399.887C1549.7+373.418+1476.07+359.461+1521.46+326.564C1526.22+323.111+1531.36+320.187+1536.52+317.363C1543.65+313.466+1551.65+309.313+1559.74+310.004" fill="#000000" stroke-linecap="butt" opacity="1" stroke-linejoin="round"/>
<path stroke="#000000" stroke-width="1" d="M439.438+696.547C439.544+720.335+439.555+744.125+439.605+767.914C439.605+767.983+439.165+794.551+437.523+790.992L437.297+790.879C436.452+792.199+437.512+782.053+437.51+779.424C437.5+766.429+437.523+769.398+437.559+756.403C437.616+736.451+437.595+716.499+437.684+696.547" fill="#000000" stroke-linecap="butt" opacity="1" stroke-linejoin="round"/>
<path stroke="#000000" stroke-width="1" d="M458.267+790.675C438.948+792.644+420.913+793.865+401.973+799.221C397.058+800.611+390.239+806.426+386.999+802.477C385.926+801.169+388.248+799.323+389.065+797.842L389.065+797.842C386.067+804.72+406.195+794.265+413.044+793.096C428.406+790.473+442.586+790.124+457.992+788.893" fill="#000000" stroke-linecap="butt" opacity="1" stroke-linejoin="round"/>
<path stroke="#000000" stroke-width="1" d="M459.348+693.967C442.531+695.638+426.412+698.408+410.059+702.574C404.983+703.867+389.861+705.449+394.922+706.804L394.718+707.009C383.227+698.883+455.291+692.484+459.213+692.22" fill="#000000" stroke-linecap="butt" opacity="1" stroke-linejoin="round"/>
<path stroke="#000000" stroke-width="1" d="M483.054+725.431C482.218+738.915+480.243+752.305+478.706+765.727C478.137+770.698+478.025+775.713+477.571+780.696C475.262+806.063+467.26+807.518+486.522+800.335C497.073+796.4+507.917+791.652+518.841+788.939C523.588+787.759+546.13+789.132+550.164+786.177L550.267+786.485C547.039+790.503+523.831+789.523+519.433+790.63C481.723+800.119+471.27+827.281+475.522+780.455C475.974+775.474+476.09+770.462+476.69+765.496C477.665+757.422+479.271+749.431+480.245+741.357C480.892+735.998+481.115+730.596+481.55+725.216" fill="#000000" stroke-linecap="butt" opacity="1" stroke-linejoin="round"/>
<path stroke="#000000" stroke-width="1" d="M547.507+743.856C546.378+751.149+545.075+758.418+544.119+765.736C534.582+838.664+573.7+776.745+611.223+785.012L611.223+785.348C598.425+788.167+547.848+808.832+541.216+799.097C536.383+792.002+541.532+772.611+542.5+765.487C543.494+758.174+544.845+750.913+546.018+743.626" fill="#000000" stroke-linecap="butt" opacity="1" stroke-linejoin="round"/>
<path stroke="#000000" stroke-width="1" d="M605.003+743.803C602.253+775.897+619.72+817.628+658.263+797.192C691.576+779.528+691.281+721.05+672.167+693.141L672.293+693.046C681.045+699.397+681.633+718.74+683.572+727.54C689.129+752.752+685.146+773.252+666.782+791.521C645.236+812.956+614.12+805.243+605.767+776.032C601.005+759.375+602.217+758.383+603.63+743.679" fill="#000000" stroke-linecap="butt" opacity="1" stroke-linejoin="round"/>
<path stroke="#000000" stroke-width="1" d="M692.007+717.952C673.394+733.669+690.027+739.096+705.817+741.939C722.241+744.896+790.835+757.331+778.756+787.325C765.898+819.255+660.752+798.833+706.712+778.197L706.813+778.35C664.944+801.636+766.351+812.058+777.503+787.639C790.744+758.644+720.484+746.178+705.406+743.241C688.257+739.902+672.319+732.435+691.59+716.58" fill="#000000" stroke-linecap="butt" opacity="1" stroke-linejoin="round"/>
<path stroke="#000000" stroke-width="1" d="M804.125+721.871C804.56+726.883+810.841+811.526+819.498+782.868L819.639+782.888C812.254+819.845+802.858+723.005+802.781+721.871" fill="#000000" stroke-linecap="butt" opacity="1" stroke-linejoin="round"/>
<path stroke="#000000" stroke-width="1" d="M782.888+725.122C766.347+727.197+754.235+727.391+739.133+732.99C733.044+735.247+750.538+736.52+751.666+736.768L751.644+736.901C712.794+729.865+777.299+723.881+782.58+723.223" fill="#000000" stroke-linecap="butt" opacity="1" stroke-linejoin="round"/>
<path stroke="#000000" stroke-width="1" d="M825.818+762.44C822.453+744.143+819.002+736.769+825.613+717.266C830.953+701.514+870.845+692.002+879.693+707.342C896.269+736.08+790.833+751.832+852.063+768.499C856.532+769.716+861.225+769.885+865.765+770.804C870.638+771.79+882.179+777.813+886.578+777.655C889.822+777.538+887.248+757.833+887.918+746.016C888.433+736.931+892.96+683.156+916.208+700.441C921.405+704.305+942.047+757.406+939.869+761.962C939.516+762.699+938.222+762.113+937.456+762.397C916.926+770.022+887.416+761.896+868.009+773.041C866.693+773.797+871.014+772.611+872.518+772.406L872.518+772.63C858.05+770.942+929.549+763.522+934.543+762.777C935.918+762.572+938.041+763.582+938.692+762.354C940.272+759.378+920.665+705.49+916.31+701.861C889.805+679.773+889.727+758.328+889.276+765.728C889.001+770.235+890.596+779.044+886.084+778.892C881.311+778.731+870.791+772.984+865.458+771.93C860.843+771.018+856.072+770.87+851.535+769.63C790.03+752.826+891.678+733.901+879.156+708.773C871.74+693.892+832.402+702.827+827.336+717.266C820.753+736.031+824.126+744.089+827.132+761.877" fill="#000000" stroke-linecap="butt" opacity="1" stroke-linejoin="round"/>
<path stroke="#000000" stroke-width="1" d="M942.3+732.441C941.937+736.792+941.489+784.622+953.094+772.467L953.094+772.569C939.823+785.292+940.201+738.776+940.866+732.019" fill="#000000" stroke-linecap="butt" opacity="1" stroke-linejoin="round"/>
<path stroke="#000000" stroke-width="1" d="M934.893+723.725C924.406+725.475+910.412+722.263+903.732+730.534C901.182+733.69+909.158+732.118+910.504+732.139L910.504+732.321C908.488+732.351+900.303+733.811+903.463+729.323C909.56+720.66+924.011+724.057+934.46+722.319" fill="#000000" stroke-linecap="butt" opacity="1" stroke-linejoin="round"/>
<path stroke="#000000" stroke-width="1" d="M976.95+737.986C976.506+742.598+973.153+759.876+976.454+763.281L975.776+763.338C971.33+759.013+974.703+743.545+975.28+737.986" fill="#000000" stroke-linecap="butt" opacity="1" stroke-linejoin="round"/>
<path stroke="#000000" stroke-width="1" d="M994.121+755.195C1016.33+806.265+1076.58+697.168+1009.34+707.459C996.695+709.395+981.136+729.69+996.364+738.827C1015.95+750.583+1033.48+718.598+1047.36+711.38C1048.11+710.993+1049.39+711.617+1049.66+712.411C1052.33+720.217+1051.43+755.739+1054.92+758.629C1058.45+761.561+1053.89+749.484+1053.9+744.892C1053.91+740.834+1053.92+730.121+1053.86+725.324C1053.85+724.939+1053.46+723.959+1053.78+724.173C1068.46+734+1071.61+753.21+1090.34+759.401C1092.28+760.041+1093.08+728.55+1093.14+727.607C1093.92+715.573+1107.69+703.884+1120+703.453C1127.44+703.193+1104.48+712.747+1105.4+717.686C1106.75+724.913+1117.81+732.412+1121.57+737.627C1135.65+757.109+1096.61+754.949+1086.51+749.757L1086.73+749.236C1095.6+753.545+1134.28+756.863+1120.73+738.344C1116.35+732.369+1105.56+725.4+1104.67+716.847C1104.11+711.492+1127.33+703.709+1120+703.453C1087.07+702.302+1097.02+741.77+1091.05+760.361C1090.29+762.739+1086.11+759.232+1083.95+757.975C1069.93+749.801+1063.26+737.401+1055+724.173C1053.37+721.569+1054.88+730.311+1054.87+733.381C1054.85+741.055+1055.44+748.746+1054.93+756.403C1054.87+757.27+1054.44+759.43+1053.86+758.781C1046.11+750.077+1052.84+724.288+1049.91+712.913C1048.5+707.442+1039.42+719.056+1032.62+725.471C1024.8+732.837+1013.75+742.139+1002.23+742.011C977.253+741.733+992.711+708.608+1009.65+706.354C1079.68+697.036+1015.71+809.909+992.641+755.309" fill="#000000" stroke-linecap="butt" opacity="1" stroke-linejoin="round"/>
<path stroke="#000000" stroke-width="1" d="M420.283+924.46C418.17+938.019+418.973+952.294+418.125+965.995C417.778+971.608+418.207+977.52+418.28+983.165C418.299+984.609+418.005+988.756+418.209+988.554L417.475+989.288C412.793+988.399+416.461+931.438+417.702+924.46" fill="#000000" stroke-linecap="butt" opacity="1" stroke-linejoin="round"/>
<path stroke="#000000" stroke-width="1" d="M415.638+988.952C403.411+989.876+389.674+990.122+377.748+993.605C370.895+995.606+377.31+994.356+380.972+991.165L381.042+991.282C377.187+995.652+369.843+993.245+377.36+991.143C381.516+989.981+385.845+989.558+390.108+988.885C400.432+987.254+403.603+987.383+415.441+986.588" fill="#000000" stroke-linecap="butt" opacity="1" stroke-linejoin="round"/>
<path stroke="#000000" stroke-width="1" d="M420.144+929.095C413.036+930.829+383.161+934.252+385.611+937.122L385.611+937.122C377.388+930.103+414.912+927.872+420.144+926.732" fill="#000000" stroke-linecap="butt" opacity="1" stroke-linejoin="round"/>
<path stroke="#000000" stroke-width="1" d="M418.993+989.361C430.139+987.801+443.593+986.742+453.395+980.667L453.656+981.059C447.454+990.004+428.641+989.719+418.993+990.783" fill="#000000" stroke-linecap="butt" opacity="1" stroke-linejoin="round"/>
<path stroke="#000000" stroke-width="1" d="M466.69+957.193C476.988+948.766+485.538+935.404+486.955+921.827C487.585+915.788+486.569+890.803+477.39+907.097C468.116+923.562+460.419+955.149+466.574+972.806C474.397+995.248+498.079+977.982+505.274+964.72L505.373+964.776C497.622+981.63+472.075+999.635+463.498+972.806C457.708+954.694+464.628+921.276+475.703+904.989C488.209+886.598+489.977+915.537+489.16+922.489C487.511+936.529+478.877+949.973+467.987+958.49" fill="#000000" stroke-linecap="butt" opacity="1" stroke-linejoin="round"/>
<path stroke="#000000" stroke-width="1" d="M526.389+938.888C555.027+902.933+541.815+859.355+523.832+918.072C516.526+941.926+526.777+1019.34+555.971+965.899L555.971+965.899C528.752+1025.57+512.69+944.203+521.348+917.036C539.81+859.105+561.471+898.305+528+939.961" fill="#000000" stroke-linecap="butt" opacity="1" stroke-linejoin="round"/>
<path stroke="#000000" stroke-width="1" d="M572.872+917.947C568.013+942.015+560.605+972.414+595.528+974.998C602.093+975.484+611.128+975.608+616.719+971.597C630.854+961.456+627.262+937.898+627.038+923.309C627.026+922.547+624.338+902.824+625.357+902.59C626.745+902.271+627.877+904.096+628.512+904.87L628.467+904.915C624.821+902.095+630.033+917.146+629.94+923.309C629.697+939.421+632.911+963.288+617.238+974.015C601.812+984.571+568.353+975.642+564.945+955.54C562.739+942.525+568.308+929.51+571.301+917.161" fill="#000000" stroke-linecap="butt" opacity="1" stroke-linejoin="round"/>
<path stroke="#000000" stroke-width="1" d="M664.048+897.521C658.052+900.642+651.705+903.164+646.061+906.884C638.985+911.548+632.294+924.417+642.114+929.735C660.655+939.776+710.227+924.661+710.963+958.648C711.641+989.963+632.988+985.225+642.742+964.748L644.165+964.748C640.652+971.196+653.219+976.518+657.266+977.28C672.158+980.084+708.937+982.069+709.469+959.338C710.268+925.21+656.857+942.358+640.189+930.697C630.391+923.843+637.206+910.27+645.45+905.202C651.387+901.552+658.015+899.166+664.297+896.148" fill="#000000" stroke-linecap="butt" opacity="1" stroke-linejoin="round"/>
<path stroke="#000000" stroke-width="1" d="M737.596+945.24C737.752+947.309+739.983+989.99+741.244+972.806L741.346+972.806C742.749+991.938+735.853+946.3+735.785+945.119" fill="#000000" stroke-linecap="butt" opacity="1" stroke-linejoin="round"/>
<path stroke="#000000" stroke-width="1" d="M734.59+912.754C731.755+913.281+685.886+924.386+690.491+916.403L690.804+916.403C687.501+917.864+696.864+916.409+697.367+916.357C703.124+915.757+708.861+914.97+714.585+914.113C721.136+913.132+727.653+911.933+734.187+910.844" fill="#000000" stroke-linecap="butt" opacity="1" stroke-linejoin="round"/>
<path stroke="#000000" stroke-width="1" d="M756.551+943.05C756.269+915.817+770.308+895.069+799.116+917.903C814.33+929.963+791.08+948.62+782.328+953.103C774.683+957.019+774.559+956.212+767.062+958.995C766.255+959.294+763.88+960.124+764.74+960.122C772.386+960.104+808.962+966.506+810.236+962.363L810.484+962.529C807.444+971.142+787.831+963.503+780.248+962.399C779.924+962.352+763.087+960.431+763.893+957.864C765.556+952.569+796.433+951.194+800.101+931.558C803.28+914.54+773.089+903.763+762.987+915.53C757.13+922.352+758.355+934.586+758.269+942.706" fill="#000000" stroke-linecap="butt" opacity="1" stroke-linejoin="round"/>
<path stroke="#000000" stroke-width="1" d="M823.567+957.145C815.949+931.315+814.491+914.238+839.716+900.541C845.325+897.496+852.496+895.736+858.705+898.077C878.978+905.723+883.958+932.087+884.109+950.798C884.133+953.761+885.254+969.755+881.815+970.813C879.114+971.644+880.241+965.262+880.466+962.446L880.685+962.446C881.649+974.5+880.623+963.999+879.337+970.194C879.03+971.671+880.266+967.3+880.422+965.799C880.7+963.132+881.381+960.514+881.603+957.842C882.041+952.573+882.279+947.24+881.735+941.981C880.162+926.781+874.332+906.85+858.705+900.196C849.543+896.295+841.215+902.332+833.957+906.965C815.394+918.816+819.819+936.394+824.778+956.237" fill="#000000" stroke-linecap="butt" opacity="1" stroke-linejoin="round"/>
<path stroke="#000000" stroke-width="1" d="M860.032+933.398C854.288+934.607+848.506+935.645+842.801+937.026C835.485+938.796+828.368+941.391+820.983+942.847C792.918+948.382+830.849+938.503+833.381+935.971L833.381+935.971C828.394+940.958+794.869+945.401+820.456+940.606C827.876+939.215+835.019+936.599+842.379+934.917C848.101+933.608+853.913+932.731+859.68+931.638" fill="#000000" stroke-linecap="butt" opacity="1" stroke-linejoin="round"/>
<path stroke="#000000" stroke-width="1" d="M919.505+942.357C911.794+949.599+917.989+948.623+917.154+963.661C917.049+965.555+917.353+971.237+917.13+969.353" fill="#000000" stroke-linecap="butt" opacity="1" stroke-linejoin="round"/>
<path stroke="#000000" stroke-width="1" d="M938.392+918.341C915.149+925.727+891.89+932.509+868.226+938.37C855.33+941.564+882.331+933.112+884.029+932.518L884.029+932.518C881.273+933.621+854.868+939.088+867.602+935.875C872.192+934.716+876.779+933.54+881.374+932.398C900.351+927.683+919.125+922.345+937.867+916.767" fill="#000000" stroke-linecap="butt" opacity="1" stroke-linejoin="round"/>
<path stroke="#000000" stroke-width="1" d="M967.765+923.309C966.515+932.418+959.994+954.706+963.276+963.792C967.349+975.067+997.608+963.92+1001.31+954.389L1001.57+954.389C1005.94+971.59+970.798+969.639+962.519+965.06C957.837+962.47+965.51+926.929+966.048+923.309" fill="#000000" stroke-linecap="butt" opacity="1" stroke-linejoin="round"/>
<path stroke="#000000" stroke-width="1" d="M1019.8+899.511C1002.34+910.742+1001.36+909.089+989.268+925.062C954.579+970.895+1037.83+983.998+1062.96+943.389C1090.66+898.618+1035.56+894.286+1007.14+896.738C994.607+897.82+984.752+915.328+994.431+924.174C1000.28+929.524+1010.38+929.709+1017.81+931.446C1026.62+933.507+1037.21+935.428+1046.33+933.679C1055.35+931.951+1067.85+915.777+1076.17+917.368L1076.35+917.74C1064.49+921.087+1059.66+933.516+1046.33+935.961C1037.07+937.659+1026.25+935.71+1017.3+933.59C921.98+911.018+1087.24+854.214+1068.98+934.153C1054.07+999.381+930.23+966.445+1001.22+910.114C1006.93+905.583+1013.68+902.547+1019.91+898.763" fill="#000000" stroke-linecap="butt" opacity="1" stroke-linejoin="round"/>
<path stroke="#000000" stroke-width="1" d="M1081.36+944.123C1081.25+935.145+1089.77+895.214+1108.35+905.069C1122.49+912.569+1110.61+962.871+1129.51+959.077C1155.17+953.93+1133.46+904.832+1141.99+895.683C1145.06+892.394+1146.6+901.196+1146.52+902.579L1146.43+902.601C1146.39+901.858+1144.06+895.675+1144.05+895.683C1136.11+902.258+1155.92+947.685+1132.79+960.057C1108.79+972.897+1119.4+914.492+1108.63+907.018C1098.23+899.806+1083.57+925.354+1082.82+931.367C1082.31+935.525+1082.72+939.746+1082.67+943.935" fill="#000000" stroke-linecap="butt" opacity="1" stroke-linejoin="round"/>
<path stroke="#000000" stroke-width="1" d="M1179.91+884.454C1165.41+891.974+1165.13+890.607+1152.67+906.595C1135.76+928.285+1201.92+911.9+1212.55+930.735C1220.47+944.779+1200.38+954.568+1190.61+957.443C1167.25+964.323+1152.66+959.794+1131.39+951.301L1131.63+950.57C1157.57+957.598+1175.89+963.801+1202.25+950.425C1208.75+947.132+1215.96+940.24+1211.63+931.999C1201.72+913.16+1131.67+930.018+1151.79+905.491C1156.64+899.59+1162.13+894.154+1168.18+889.492C1171.58+886.866+1175.93+885.759+1179.8+883.892" fill="#000000" stroke-linecap="butt" opacity="1" stroke-linejoin="round"/>
<path stroke="#000000" stroke-width="1" d="M552.518+245.324C552.518+191.213+565.18+138.608+565.18+85.3237" fill="#000000" stroke-linecap="butt" opacity="1" stroke-linejoin="round"/>
<path stroke="#000000" stroke-width="1" d="M603.165+247.626C643.519+247.626+441.949+254.532+482.302+254.532" fill="#000000" stroke-linecap="butt" opacity="1" stroke-linejoin="round"/>
<path stroke="#000000" stroke-width="1" d="M760.35+187.664C753.943+168.442+755.202+101.911+764.142+84.0309" fill="none" stroke-linecap="round" opacity="1" stroke-linejoin="round"/>
<path stroke="#000000" stroke-width="1" d="M785.627+178.817C789.475+178.817+719.764+190.191+695.896+190.191" fill="none" stroke-linecap="round" opacity="1" stroke-linejoin="round"/>
<path stroke="#000000" stroke-width="1" d="M795.737+85.2947C830.713+85.2947+657.129+101.724+692.104+101.724" fill="none" stroke-linecap="round" opacity="1" stroke-linejoin="round"/>
<path stroke="#000000" stroke-width="1" d="M790.682+156.068C814.737+164.087+869.762+91.855+838.707+81.5033C799.541+68.4479+766.72+165.956+800.793+186.4C859.06+221.361+930.981+78.726+900.634+72.6566C870.356+66.6009+836.257+178.52+872.83+187.664C902.891+195.179+939.812+123.209+939.812+123.209C939.812+123.209+925.91+150.261+925.91+164.915C925.91+209.404+971.505+148.193+976.463+133.32C980.785+120.354+939.391+191.666+1003+159.86" fill="none" stroke-linecap="round" opacity="1" stroke-linejoin="round"/>
<path stroke="#000000" stroke-width="1" d="M1042.18+108.043C1060.68+71.0516+929.127+135.847+1003+135.847C1140.24+135.847+957.917+164.075+985.31+158.596" fill="none" stroke-linecap="round" opacity="1" stroke-linejoin="round"/>
<path stroke="#000000" stroke-width="1" d="M1066.19+66.3375C1070.8+84.753+1037.93+153.085+1056.08+171.234C1073.43+188.576+1115.71+159.977+1119.27+142.166" fill="none" stroke-linecap="round" opacity="1" stroke-linejoin="round"/>
<path stroke="#000000" stroke-width="1" d="M1104.11+109.307C1086.36+109.307+1013.95+128.056+1023.22+125.737" fill="none" stroke-linecap="round" opacity="1" stroke-linejoin="round"/>
<path stroke="#000000" stroke-width="1" d="M1109.16+110.571C1109.16+279.091+1144.62+56.4323+1163.51+113.099" fill="none" stroke-linecap="round" opacity="1" stroke-linejoin="round"/>
<path stroke="#000000" stroke-width="1" d="M1198.89+142.166C1213.06+113.844+1111.2+133.383+1145.81+173.762C1161.88+192.505+1212.8+117.48+1212.8+142.166C1212.8+176.224+1250.71+189.379+1250.71+153.541" fill="none" stroke-linecap="round" opacity="1" stroke-linejoin="round"/>
<path stroke="#000000" stroke-width="1" d="M1257.03+68.8651C1257.03+201.877+1318.96+160.853+1318.96+132.056" fill="none" stroke-linecap="round" opacity="1" stroke-linejoin="round"/>
<path stroke="#000000" stroke-width="1" d="M1374.56+101.724C1353.33+91.1056+1323.96+165.85+1365.72+176.289C1383.2+180.66+1396.8+158.22+1402.37+145.958C1407.86+133.867+1412.69+119.835+1406.16+106.78C1370.38+35.2156+1354.71+213.66+1425.12+108.043" fill="none" stroke-linecap="round" opacity="1" stroke-linejoin="round"/>
<path stroke="#000000" stroke-width="1" d="M1435.23+96.6691C1435.23+120.298+1438.03+182.887+1421.33+166.179C1379.31+124.159+1532.25+49.2256+1471.88+169.97" fill="none" stroke-linecap="round" opacity="1" stroke-linejoin="round"/>
<path stroke="#000000" stroke-width="1" d="M1548.97+94.1415C1576.83+80.2105+1463.61+82.7173+1503.47+116.89C1578.83+181.483+1503.63+184.103+1473.14+138.375" fill="none" stroke-linecap="round" opacity="1" stroke-linejoin="round"/>
<path stroke="#000000" stroke-width="1" d="M1313.9+100.461C1273.19+114.031+1188.78+173.706+1188.78+130.792" fill="none" stroke-linecap="round" opacity="1" stroke-linejoin="round"/>
</g>
<g id="Layer 2" vectornator:layerName="Layer 2">
<path stroke="#ffffff" stroke-width="25" d="M29.3381+209L35.6593+95.3665M25+35.8258C25+30.3029+29.4772+25.8258+35+25.8258C40.5228+25.8258+45+30.3029+45+35.8258C45+41.3486+40.5228+45.8258+35+45.8258C29.4772+45.8258+25+41.3486+25+35.8258Z" fill="#ffffff" stroke-linecap="round" opacity="1" stroke-linejoin="round"/>
<path stroke="#ffffff" stroke-width="25" d="M76.7981+209C76.7981+209+208.444+51.3416+144.084+59.2908C79.7235+67.24+101.664+212.975+136.77+201.051C171.875+189.127+190.891+145.407+190.891+145.407" fill="none" stroke-linecap="round" opacity="1" stroke-linejoin="round"/>
<path stroke="#ffffff" stroke-width="25" d="M214.688+209C214.688+209+346.334+51.3416+281.974+59.2908C217.614+67.24+239.554+212.975+274.66+201.051C309.765+189.127+328.781+145.407+328.781+145.407" fill="none" stroke-linecap="round" opacity="1" stroke-linejoin="round"/>
<path stroke="#ffffff" stroke-width="25" d="M368.792+75.2638C368.792+75.2638+361.046+204.173+429.455+204.173C497.701+204.173+481.272+120.761+486.327+74" fill="none" stroke-linecap="round" opacity="1" stroke-linejoin="round"/>
<path stroke="#ffffff" stroke-width="25" d="M618.275+70.1327C618.275+70.1327+532.335+54.9669+534.863+105.52C538.166+171.591+618.275+128.268+630.913+159.864C654.498+218.827+543.709+215.472+537.39+180.085" fill="none" stroke-linecap="round" opacity="1" stroke-linejoin="round"/>
<path stroke="#ffffff" stroke-width="25" d="M710.538+205.726C710.538+205.726+764.732+122.377+730.759+79.3441M810.825+25C810.825+25+715.344+88.0485+667.568+71.7612" fill="none" stroke-linecap="round" opacity="1" stroke-linejoin="round"/>
<path stroke="#ffffff" stroke-width="25" d="M838.183+94.1047C838.183+94.1047+871.513+215.879+922.125+205.471M818.432+199.634L821.115+78.6121C821.115+78.6121+936.481+61.6464+924.408+115.937C910.661+177.752+830.505+163.441+821.115+135.164" fill="none" stroke-linecap="round" opacity="1" stroke-linejoin="round"/>
<path stroke="#ffffff" stroke-width="25" d="M1133.36+94.8316C1133.36+94.8316+996.76+188.256+969.157+151.098M1003.61+201.622C1003.61+201.622+993.782+81.9566+1064.46+81.9566C1108.1+81.9566+1118.21+163.41+1108.1+211.957" fill="none" stroke-linecap="round" opacity="1" stroke-linejoin="round"/>
<path stroke="#ffffff" stroke-width="25" d="M1208.14+205.726C1208.14+205.726+1262.33+122.377+1228.36+79.3441M1308.42+25C1308.42+25+1212.94+88.0485+1165.17+71.7612" fill="none" stroke-linecap="round" opacity="1" stroke-linejoin="round"/>
<path stroke="#ffffff" stroke-width="25" d="M1347.51+209.004L1353.83+95.3707M1343.17+35.83C1343.17+30.3072+1347.65+25.83+1353.17+25.83C1358.69+25.83+1363.17+30.3072+1363.17+35.83C1363.17+41.3528+1358.69+45.83+1353.17+45.83C1347.65+45.83+1343.17+41.3528+1343.17+35.83Z" fill="#ffffff" stroke-linecap="round" opacity="1" stroke-linejoin="round"/>
<path stroke="#ffffff" stroke-width="25" d="M1465.21+76.3114C1407.8+71.4286+1407.61+125.244+1407.61+148.423C1407.61+217.3+1522.2+230.288+1527.02+154.861C1530.88+94.3392+1495.48+78.8868+1465.21+76.3114ZM1462.63+76.3114C1414.89+72.2855+1367.34+132.97+1434.3+145.847C1490.43+156.641+1520.83+133.658+1533.45+103.353" fill="none" stroke-linecap="round" opacity="1" stroke-linejoin="round"/>
<path stroke="#ffffff" stroke-width="25" d="M1578.42+202.615C1578.42+202.615+1561.02+68.8457+1606.7+81.8964C1659.2+96.8978+1642.59+210.228+1682.83+205.878C1735.13+200.223+1703.49+107.998+1693.7+81.8964" fill="none" stroke-linecap="round" opacity="1" stroke-linejoin="round"/>
<path stroke="#ffffff" stroke-width="25" d="M1843.13+60.3242C1843.13+60.3242+1749.47+43.7966+1752.23+98.8885C1755.83+170.893+1843.13+123.68+1856.9+158.112C1882.61+222.37+1761.87+218.713+1754.98+180.149" fill="none" stroke-linecap="round" opacity="1" stroke-linejoin="round"/>
</g>
</svg>
