<?xml version="1.0" encoding="UTF-8" standalone="no"?>
<!DOCTYPE svg PUBLIC "-//W3C//DTD SVG 1.1//EN" "http://www.w3.org/Graphics/SVG/1.1/DTD/svg11.dtd">
<!-- Created with Vectornator (http://vectornator.io/) -->
<svg height="100%" stroke-miterlimit="10" style="fill-rule:nonzero;clip-rule:evenodd;stroke-linecap:round;stroke-linejoin:round;" version="1.1" viewBox="0 0 1900 235" width="100%" xml:space="preserve" xmlns="http://www.w3.org/2000/svg" xmlns:vectornator="http://vectornator.io" xmlns:xlink="http://www.w3.org/1999/xlink">
<defs/>
<path d="M0 0L1900 0L1900 235L0 235L0 0Z" fill="#ffffff" fill-opacity="0" fill-rule="nonzero" opacity="1" stroke="none"/>
<g id="Layer-2" vectornator:layerName="Layer 2">
<path d="M277.233 78.3745C277.233 78.3745 224.742 118.929 171.611 133.363C118.662 147.749 65.0964 136.047 51.3185 117.5M84.4002 201.102C84.4002 201.102 95.1426 68.3007 165.821 68.3007C209.461 68.3007 262.083 146.953 251.973 195.5" fill="none" opacity="1" stroke="#ffffff" stroke-linecap="round" stroke-linejoin="round" stroke-width="25" vectornator:layerName="path 2"/>
<path d="M322.998 200.619C322.998 200.619 305.598 66.8493 351.278 79.9C403.778 94.9014 387.168 208.232 427.408 203.882C479.708 198.227 448.068 106.002 438.278 79.9" fill="none" opacity="1" stroke="#ffffff" stroke-linecap="round" stroke-linejoin="round" stroke-width="25" vectornator:layerName="path 1"/>
<path d="M508.817 201.102L515.138 87.4689M504.479 27.9282C504.479 22.4053 508.956 17.9282 514.479 17.9282C520.001 17.9282 524.479 22.4053 524.479 27.9282C524.479 33.451 520.001 37.9282 514.479 37.9282C508.956 37.9282 504.479 33.451 504.479 27.9282Z" fill="#ffffff" fill-rule="evenodd" opacity="1" stroke="#ffffff" stroke-linecap="round" stroke-linejoin="round" stroke-width="25" vectornator:layerName="path"/>
<path d="M567.428 196.901C567.428 196.901 549.013 86.8057 595.708 74.7018C648.563 61.0014 681.285 138.773 692.46 141C710.268 144.548 722.725 75.9995 768.76 68.3007C795.147 63.8877 858.369 82.4006 824.085 202.503" fill="none" opacity="1" stroke="#ffffff" stroke-linecap="round" stroke-linejoin="round" stroke-width="25" vectornator:layerName="path 4"/>
<path d="M1032.1 88.8745C1032.1 88.8745 895.502 182.299 867.899 145.141M902.352 195.665C902.352 195.665 892.524 75.9995 963.202 75.9995C1006.84 75.9995 1016.95 157.453 1006.84 206" fill="none" opacity="1" stroke="#ffffff" stroke-linecap="round" stroke-linejoin="round" stroke-width="25" vectornator:layerName="path 3"/>
<path d="M1155.25 207.365C1155.25 207.365 1180.99 113.771 1147.02 70.7385M1221.52 35.567C1221.52 35.567 1244.25 27.469 1158.11 59.639C1120.65 73.6297 1075.09 79.1651 1060.17 74.0792" fill="none" opacity="1" stroke="#ffffff" stroke-linecap="round" stroke-linejoin="round" stroke-width="25" vectornator:layerName="path"/>
<path d="M1263.07 204.004L1269.39 90.3703M1258.73 30.8296C1258.73 25.3068 1263.21 20.8296 1268.73 20.8296C1274.25 20.8296 1278.73 25.3068 1278.73 30.8296C1278.73 36.3524 1274.25 40.8296 1268.73 40.8296C1263.21 40.8296 1258.73 36.3524 1258.73 30.8296Z" fill="#ffffff" fill-rule="evenodd" opacity="1" stroke="#ffffff" stroke-linecap="round" stroke-linejoin="round" stroke-width="25" vectornator:layerName="path"/>
<path d="M1389 70.8342C1331.59 65.9514 1331.4 119.767 1331.4 142.946C1331.4 211.823 1445.99 224.811 1450.81 149.384C1454.67 88.862 1419.27 73.4096 1389 70.8342ZM1386.42 70.8342C1338.68 66.8083 1291.13 127.493 1358.09 140.37C1414.22 151.164 1444.62 128.181 1457.24 97.8758" fill="none" opacity="1" stroke="#ffffff" stroke-linecap="round" stroke-linejoin="round" stroke-width="25" vectornator:layerName="path"/>
<path d="M1504.6 195.136C1504.6 195.136 1507.77 60.7834 1553.45 73.8341C1605.95 88.8355 1616.77 199.486 1657.01 195.136C1709.31 189.481 1683.16 96.8401 1673.37 70.7385" fill="none" opacity="1" stroke="#ffffff" stroke-linecap="round" stroke-linejoin="round" stroke-width="25" vectornator:layerName="path"/>
<path d="M1843.13 60.3242C1843.13 60.3242 1722.8 54.4576 1726.17 109.515C1728.13 141.504 1843.13 123.68 1856.9 158.112C1882.61 222.37 1738.56 233.825 1731.67 195.261" fill="none" opacity="1" stroke="#ffffff" stroke-linecap="round" stroke-linejoin="round" stroke-width="25" vectornator:layerName="path"/>
</g>
<g id="Layer-2-copier" vectornator:layerName="Layer 2 copier" visibility="hidden">
<path d="M29.3381 209L35.6593 95.3665M25 35.8258C25 30.3029 29.4772 25.8258 35 25.8258C40.5228 25.8258 45 30.3029 45 35.8258C45 41.3486 40.5228 45.8258 35 45.8258C29.4772 45.8258 25 41.3486 25 35.8258Z" fill="#ffffff" fill-rule="evenodd" opacity="1" stroke="#ffffff" stroke-linecap="round" stroke-linejoin="round" stroke-width="25" vectornator:layerName="path"/>
<path d="M76.7981 209C76.7981 209 208.444 51.3416 144.084 59.2908C79.7235 67.24 101.664 212.975 136.77 201.051C171.875 189.127 190.891 145.407 190.891 145.407" fill="none" opacity="1" stroke="#ffffff" stroke-linecap="round" stroke-linejoin="round" stroke-width="25" vectornator:layerName="path"/>
<path d="M214.688 209C214.688 209 346.334 51.3416 281.974 59.2908C217.614 67.24 239.554 212.975 274.66 201.051C309.765 189.127 328.781 145.407 328.781 145.407" fill="none" opacity="1" stroke="#ffffff" stroke-linecap="round" stroke-linejoin="round" stroke-width="25" vectornator:layerName="path"/>
<path d="M368.792 75.2638C368.792 75.2638 361.046 204.173 429.455 204.173C497.701 204.173 481.272 120.761 486.327 74" fill="none" opacity="1" stroke="#ffffff" stroke-linecap="round" stroke-linejoin="round" stroke-width="25" vectornator:layerName="path"/>
<path d="M618.275 70.1327C618.275 70.1327 532.335 54.9669 534.863 105.52C538.166 171.591 618.275 128.268 630.913 159.864C654.498 218.827 543.709 215.472 537.39 180.085" fill="none" opacity="1" stroke="#ffffff" stroke-linecap="round" stroke-linejoin="round" stroke-width="25" vectornator:layerName="path"/>
<path d="M710.538 205.726C710.538 205.726 764.732 122.377 730.759 79.3441M810.825 25C810.825 25 715.344 88.0485 667.568 71.7612" fill="none" opacity="1" stroke="#ffffff" stroke-linecap="round" stroke-linejoin="round" stroke-width="25" vectornator:layerName="path"/>
<path d="M838.183 94.1047C838.183 94.1047 871.513 215.879 922.125 205.471M818.432 199.634L821.115 78.6121C821.115 78.6121 936.481 61.6464 924.408 115.937C910.661 177.752 830.505 163.441 821.115 135.164" fill="none" opacity="1" stroke="#ffffff" stroke-linecap="round" stroke-linejoin="round" stroke-width="25" vectornator:layerName="path"/>
<path d="M1133.36 94.8316C1133.36 94.8316 996.76 188.256 969.157 151.098M1003.61 201.622C1003.61 201.622 993.782 81.9566 1064.46 81.9566C1108.1 81.9566 1118.21 163.41 1108.1 211.957" fill="none" opacity="1" stroke="#ffffff" stroke-linecap="round" stroke-linejoin="round" stroke-width="25" vectornator:layerName="path"/>
<path d="M1208.14 205.726C1208.14 205.726 1262.33 122.377 1228.36 79.3441M1308.42 25C1308.42 25 1212.94 88.0485 1165.17 71.7612" fill="none" opacity="1" stroke="#ffffff" stroke-linecap="round" stroke-linejoin="round" stroke-width="25" vectornator:layerName="path"/>
<path d="M1347.51 209.004L1353.83 95.3707M1343.17 35.83C1343.17 30.3072 1347.65 25.83 1353.17 25.83C1358.69 25.83 1363.17 30.3072 1363.17 35.83C1363.17 41.3528 1358.69 45.83 1353.17 45.83C1347.65 45.83 1343.17 41.3528 1343.17 35.83Z" fill="#ffffff" fill-rule="evenodd" opacity="1" stroke="#ffffff" stroke-linecap="round" stroke-linejoin="round" stroke-width="25" vectornator:layerName="path"/>
<path d="M1465.21 76.3114C1407.8 71.4286 1407.61 125.244 1407.61 148.423C1407.61 217.3 1522.2 230.288 1527.02 154.861C1530.88 94.3392 1495.48 78.8868 1465.21 76.3114ZM1462.63 76.3114C1414.89 72.2855 1367.34 132.97 1434.3 145.847C1490.43 156.641 1520.83 133.658 1533.45 103.353" fill="none" opacity="1" stroke="#ffffff" stroke-linecap="round" stroke-linejoin="round" stroke-width="25" vectornator:layerName="path"/>
<path d="M1578.42 202.615C1578.42 202.615 1561.02 68.8457 1606.7 81.8964C1659.2 96.8978 1642.59 210.228 1682.83 205.878C1735.13 200.223 1703.49 107.998 1693.7 81.8964" fill="none" opacity="1" stroke="#ffffff" stroke-linecap="round" stroke-linejoin="round" stroke-width="25" vectornator:layerName="path"/>
<path d="M1843.13 60.3242C1843.13 60.3242 1749.47 43.7966 1752.23 98.8885C1755.83 170.893 1843.13 123.68 1856.9 158.112C1882.61 222.37 1761.87 218.713 1754.98 180.149" fill="none" opacity="1" stroke="#ffffff" stroke-linecap="round" stroke-linejoin="round" stroke-width="25" vectornator:layerName="path"/>
</g>
</svg>
